<?xml version="1.0" standalone="no"?><svg xmlns="http://www.w3.org/2000/svg" viewBox="0 0 1440 320"><path fill="#191919" fill-opacity="1" d="M0,288L14.1,272C28.2,256,56,224,85,181.3C112.9,139,141,85,169,80C197.6,75,226,117,254,112C282.4,107,311,53,339,74.7C367.1,96,395,192,424,245.3C451.8,299,480,309,508,309.3C536.5,309,565,299,593,272C621.2,245,649,203,678,197.3C705.9,192,734,224,762,202.7C790.6,181,819,107,847,85.3C875.3,64,904,96,932,128C960,160,988,192,1016,181.3C1044.7,171,1073,117,1101,117.3C1129.4,117,1158,171,1186,165.3C1214.1,160,1242,96,1271,64C1298.8,32,1327,32,1355,42.7C1383.5,53,1412,75,1426,85.3L1440,96L1440,320L1425.9,320C1411.8,320,1384,320,1355,320C1327.1,320,1299,320,1271,320C1242.4,320,1214,320,1186,320C1157.6,320,1129,320,1101,320C1072.9,320,1045,320,1016,320C988.2,320,960,320,932,320C903.5,320,875,320,847,320C818.8,320,791,320,762,320C734.1,320,706,320,678,320C649.4,320,621,320,593,320C564.7,320,536,320,508,320C480,320,452,320,424,320C395.3,320,367,320,339,320C310.6,320,282,320,254,320C225.9,320,198,320,169,320C141.2,320,113,320,85,320C56.5,320,28,320,14,320L0,320Z"></path></svg>